<svg xmlns="http://www.w3.org/2000/svg" xmlns:xlink="http://www.w3.org/1999/xlink"><defs><path d="M.04 1.562c.238 5.604.45 10.684.542 13.215.234 6.357-.442 15.27 7.643 15.24 8.08-.03 8.067-18.745 8.497-23.886.195-2.294.273-4.05.32-6.085L.04 1.565z" id="hand-a"/><path d="M.27 2.695c.05-.068.102-.126.157-.175C4.05-.734 14.747 18.803 18.994 26.523c3.682 6.693 11.998 14.562 21.272 16.9v-21.49C36.204 15.623 31.52 7.783 27.283.266H.27v2.428z" id="hand-c"/><path d="M78.583 203.764c-3.853.055-6.75-.638-6.85-1.75 0-.022.007-.043.007-.07-.38-8.983-1.92-32.985-1.92-32.985s-7.977 8.975-18.758 9.006c-6.737.02-7.4-12.588-7.4-12.588s-6.52 1.366-11.532 1.046c-5.016-.316-5.324-4.236-5.94-12.315 0 0-4.486 5.067-15.727 3.427C4.38 156.65-1.832 100.69.626 85.422c2.458-15.27 9.655-32.45 8.75-43.398C8.472 31.074 3.183 2.744 3 2.74L45.937.183h21.377c.09 17.976-6.12 39.42 3.815 59.297 2 4.005 4.576 7.58 7.45 10.847v133.437z" id="hand-e"/><path id="hand-g" d="M64.453.088H.01V17.96h64.443V.09z"/><path d="M.1 1.854c.142 3.375.276 6.55.38 9.182.01.212.022.437.03.645.633 1.115 4.297 1.768 8.71 1.474 4.135-.273 7.526-1.276 8.34-2.38.018-.294.035-.58.048-.86.074-1.295.135-2.416.204-3.207.204-2.437.29-4.306.338-6.465L.1 1.855z" id="hand-i"/></defs><symbol id="arrow" viewBox="0 0 28 18"><title>Slice 1</title><g stroke="#000" stroke-width="2" fill="none" fill-rule="evenodd"><path d="M1 9h24" stroke-linecap="square"/><path d="M18 1l8 8-8 7.415"/></g></symbol><symbol id="hand" viewBox="0 0 159 256"><g fill="none" fill-rule="evenodd"><path d="M121.132 197.95c.602-13.446 4.298-40.118 7.357-53.58 3.052-13.467-8.74-34.53-4.548-55.24 4.51-22.292 23.37-35.47 34.266-50.09L105.19 2.47c.14.115-13.136 25.7-19.162 34.884-6.03 9.182-22.28 18.292-33.614 28.815-11.336 10.513-40.895 58.44-36.652 62.88 7.855 8.21 14.51 6.98 14.51 6.98-4.495 6.746-6.663 10.02-2.908 13.36 3.752 3.34 9.732 6.277 9.732 6.277s-7.238 10.34-1.916 14.47c8.515 6.614 20.326 4.453 20.326 4.453s-13.563 19.86-18.795 27.177c-.01.016-.03.028-.04.047-.73 1.126 2.08 4.245 6.28 6.973 4.198 2.725 8.194 4.024 8.92 2.896 0 0 .025-.06.04-.085l.014.01c1.7-2.075 17.03-22.6 25.344-32.282 8.31-9.686 21.54-29.217 25.013-29.446 4.858-.33 1.26 21.647-.15 30.347-1.405 8.704 1.09 22.438 9.375 29.613 8.278 7.17 9.102-.038 9.628-11.894" fill="#2DB298"/><path d="M126.494 143.528c3.055-13.466-8.738-34.53-4.545-55.24 4.503-22.294 23.37-35.468 34.263-50.09l-53.02-36.57c.14.116-13.136 25.7-19.162 34.885C78 45.695 61.75 54.805 50.418 65.328 39.08 75.844 9.52 123.768 13.764 128.21c7.855 8.212 14.51 6.98 14.51 6.98-4.495 6.747-6.663 10.023-2.908 13.363 3.75 3.338 9.73 6.275 9.73 6.275s-7.237 10.34-1.915 14.47c8.516 6.615 20.327 4.454 20.327 4.454s-13.562 19.86-18.794 27.176c-.775 1.174 2.037 4.293 6.238 7.02 4.198 2.726 8.195 4.025 8.923 2.897 1.752-2.15 17.083-22.676 25.396-32.358 8.31-9.686 21.54-29.217 25.012-29.446 4.857-.326 1.26 21.65-.152 30.35-1.403 8.705 1.09 22.44 9.377 29.614 5.056 4.38 7.33 3.395 8.456-.74.716-2.632.966-6.54 1.17-11.154.603-13.446 4.3-40.118 7.358-53.58zM26.75 211.55c-1.97 2.752-3.82 5.337-5.354 7.47-.123.18-.255.362-.376.53-.19 1.265 2.3 4.037 5.958 6.523 3.426 2.33 6.722 3.626 8.037 3.26.198-.225.385-.436.568-.65.858-.97 1.593-1.82 2.138-2.405a96.56 96.56 0 0 0 4.246-4.882L26.75 211.55zM7.03 238.308c-3.725 5.15-9.745 11.764-3.36 16.715 6.39 4.948 17.9-9.804 21.41-13.592a93.619 93.619 0 0 0 3.996-4.6l-14.333-9.27c-3.265 4.565-6.225 8.7-7.712 10.75" fill="#43E3C9"/><g transform="rotate(38 -320.78 135.91)"><mask id="hand-b" fill="#fff"><use xlink:href="#hand-a"/></mask><path d="M44.447-44.542c-3.793-7.914-7.6-15.86-12.407-23.207A99.612 99.612 0 0 0 6.558-94.245c-8.29-5.898-17.67-10.576-27.75-12.004-10.074-1.433-20.912.657-28.837 7.035-8.793 7.075-13.02 18.39-15.192 29.46-5.71 29.16.508 60.12 15.243 85.937 1.725 3.03 3.624 6.06 6.355 8.232 9.3 7.386 23.436 2.02 34.547 6.222 3.258 1.23 6.943 3.27 9.938 1.497 2.315-1.366 2.94-4.382 3.26-7.052 2.55-21.253.273-42.82 2.146-64.14.676-7.655 2.05-15.656 6.884-21.636 1.253-1.55 2.835-2.99 4.8-3.345 4-.715 7.217 3.227 8.986 6.884 3.01 6.222 4.77 13.007 8.02 19.104 1.85 3.462 7.422 12.714 12.693 9.88 4.994-2.688-1.49-12.8-3.2-16.366" fill="#43E3C9" mask="url(#hand-b)"/></g><path d="M14.87 227.524c.712-1.047 4.433.246 8.312 2.886 3.878 2.635 6.447 5.62 5.734 6.666-.71 1.05-4.43-.244-8.31-2.884-3.878-2.64-6.447-5.625-5.737-6.668z" fill="#FFCA45"/><g transform="rotate(38 -162.413 220.786)"><mask id="hand-d" fill="#fff"><use xlink:href="#hand-c"/></mask><path d="M23.17 23.077c-2.667-4.11-5.264-8.265-7.97-12.25-1.937-2.852-3.923-5.75-6.688-7.88C-3.232-6.083.362 10.12 2.56 16.045c2.92 7.88 7.92 14.743 13.313 21.238 2.8 3.375 17.11 21.523 22.313 15.773 5.917-5.903-2.328-12.605-5.684-16.768-3.355-4.163-6.385-8.66-9.333-13.21" fill="#43E3C9" mask="url(#hand-d)"/></g><g transform="rotate(38 54.706 147.675)"><mask id="hand-f" fill="#fff"><use xlink:href="#hand-e"/></mask><path d="M75.46 165.87c-3.77-11.62-10.547-22.95-19.426-31.39-7.846-7.45-17.583-14.158-21.44-24.72-1.302-3.566-1.818-7.357-2.33-11.117L26.088 52.97c-2.003-14.804-6.55-28.95-8.38-43.856-.3-2.44-.64-5.09-2.37-6.846C13.15.048 9.613.078 6.496.26c-1.375.082-2.792.173-4.032.78-2.57 1.258-3.633 4.296-4.448 7.04C-7.69 27.214-13.437 46.496-15.71 66.397c-1.07 9.36-.372 18.672-.675 28.113-.312 9.827-.677 19.845 2.033 29.404 3.085 10.9 9.9 20.31 16.59 29.463l24.506 33.55c5.644 7.727 13.725 19.662 23.384 22.743 3.993 1.276 8.094-3.696 12.182-3.735 5.237-.052 10.508.294 15.745.442.416-7.456.63-10.74.477-18.205-.113-5.604-.39-11.23-1.56-16.707a57.403 57.403 0 0 0-1.514-5.595" fill="#000" mask="url(#hand-f)"/></g><g transform="rotate(38 65.12 156.122)"><mask id="hand-h" fill="#fff"><use xlink:href="#hand-g"/></mask><path d="M.014 11.152C-.303 6.358 13.864 1.52 31.66.347 49.45-.83 64.136 2.1 64.448 6.894c.32 4.8-13.846 9.637-31.642 10.81C15.01 18.874.33 15.94.016 11.15z" fill="#FFC637" mask="url(#hand-h)"/></g><g transform="rotate(38 -291.082 145.4)"><mask id="hand-j" fill="#fff"><use xlink:href="#hand-i"/></mask><path d="M44.9-24.246c-3.793-7.914-7.6-15.86-12.407-23.206a99.51 99.51 0 0 0-25.483-26.5c-8.288-5.898-17.67-10.575-27.748-12.003-10.075-1.433-20.913.657-28.838 7.036C-58.372-71.84-62.6-60.53-64.77-49.46c-5.71 29.16.507 60.124 15.242 85.94 1.725 3.03 3.624 6.058 6.355 8.23 9.3 7.387 23.436 2.02 34.547 6.22 3.256 1.23 6.94 3.274 9.936 1.5 2.315-1.37 2.94-4.384 3.26-7.054 2.55-21.255.273-42.82 2.146-64.14C7.392-26.42 8.766-34.42 13.6-40.4c1.253-1.55 2.836-2.99 4.8-3.346 4-.714 7.217 3.228 8.986 6.884 3.01 6.223 4.77 13.008 8.02 19.105 1.85 3.463 7.422 12.714 12.694 9.88 4.994-2.687-1.492-12.8-3.2-16.366" fill="#7B28FF" mask="url(#hand-j)"/></g><path d="M26.882 211.512c.755-1.107 4.707.262 8.822 3.065 4.117 2.8 6.85 5.972 6.094 7.08-.757 1.11-4.704-.26-8.825-3.063-4.117-2.8-6.843-5.973-6.09-7.082z" fill="#FFCA45"/></g></symbol></svg>