<?xml version="1.0" standalone="no"?>
<!DOCTYPE svg PUBLIC "-//W3C//DTD SVG 20010904//EN"
 "http://www.w3.org/TR/2001/REC-SVG-20010904/DTD/svg10.dtd">
<svg version="1.0" xmlns="http://www.w3.org/2000/svg"
 width="512.000000pt" height="512.000000pt" viewBox="0 0 512.000000 512.000000"
 preserveAspectRatio="xMidYMid meet">
<metadata>
Created by potrace 1.11, written by Peter Selinger 2001-2013
</metadata>
<g transform="translate(0.000000,512.000000) scale(0.100000,-0.100000)"
fill="#000000" stroke="none">
<path d="M3032 3945 c-24 -14 -114 -72 -200 -129 -176 -117 -478 -292 -684
-396 -155 -79 -204 -119 -341 -280 -173 -201 -213 -243 -292 -306 -210 -169
-445 -230 -786 -204 -85 6 -222 14 -305 17 -149 6 -151 5 -173 -18 -28 -30
-58 -127 -71 -231 -34 -273 22 -669 114 -807 39 -58 56 -60 219 -31 255 45
425 71 517 76 117 8 182 -4 507 -89 l238 -62 255 1 c197 0 297 6 439 23 311
37 520 82 587 126 44 28 40 169 -6 257 -11 21 -20 40 -20 42 0 2 28 6 63 8 76
6 124 29 138 66 11 26 6 161 -7 208 -5 19 1 22 51 32 72 15 120 38 146 71 46
57 3 210 -92 331 -22 27 -34 50 -27 50 72 0 565 34 571 40 29 27 25 198 -7
274 l-15 35 -688 4 c-378 2 -698 7 -710 11 -35 13 -29 49 15 92 48 46 165 123
321 210 232 129 355 290 369 481 8 120 -33 152 -126 98z"/>
<path d="M4059 3029 c-16 -30 -7 -215 12 -254 14 -30 15 -30 105 -33 76 -2 93
0 105 14 20 24 17 196 -3 245 -18 41 -41 49 -144 49 -54 0 -65 -3 -75 -21z"/>
<path d="M4420 3025 c-10 -12 -14 -42 -14 -98 1 -94 17 -163 42 -176 26 -14
382 4 424 22 80 34 105 124 48 177 -53 49 -150 71 -375 85 -97 6 -112 5 -125
-10z"/>
</g>
</svg>
