<svg width="980" height="307" viewBox="0 0 980 307" xmlns="http://www.w3.org/2000/svg"><title>Grrr logo</title><path d="M574.705 61.954h71.417c15.77 0 28.604 12.834 28.604 28.604 0 15.78-12.835 28.616-28.604 28.616h-71.417v-57.22zM725.26 90.558c0-43.626-35.512-79.14-79.138-79.14H520.12V294.74h54.585V169.697h42.812l60.055 125.043h61.807l-62.96-131.092c28.638-11.92 48.84-40.177 48.84-73.09zm90.066-28.604h71.416c15.77 0 28.593 12.834 28.593 28.604 0 15.78-12.823 28.616-28.593 28.616h-71.416v-57.22zM918.18 294.74H980l-62.96-131.092c28.628-11.92 48.84-40.177 48.84-73.09 0-43.626-35.514-79.14-79.14-79.14H760.73V294.74h54.596V169.697h42.812L918.18 294.74zM334.252 61.954h71.406c15.78 0 28.603 12.834 28.603 28.604 0 15.78-12.82 28.616-28.6 28.616h-71.407v-57.22zm150.544 28.604c0-43.626-35.5-79.14-79.138-79.14H279.666V294.74h54.586V169.697h42.812l60.054 125.043h61.808L435.97 163.648c28.626-11.92 48.826-40.177 48.826-73.09zm-243.94 68.882v-40.36H106.07l.144 50.974h80.56c1.054 38.733-5.396 58.335-15.907 68.7-10.506 10.37-24.87 15.552-43.083 15.552-20.178 0-36.78-8.617-49.812-25.852-13.03-17.233-19.543-43.78-19.543-79.653 0-30.54 6.72-54.223 20.172-71.036 13.367-16.707 29.64-25.104 48.816-25.21v-.008c.046 0 .092-.004.14-.004 19.343 0 35.66 8.416 48.965 25.228 3.517 4.443 6.552 9.433 9.135 14.94l51.827-24.475C231.43 56.08 224.14 45.728 215.623 37.2c-12.193-12.18-25.79-21.43-40.773-27.743C159.85 3.164 144.097 0 127.56 0c-.048 0-2.15.04-2.907.065-33.59.673-62.615 13.8-87.033 39.447C12.536 65.856 0 102.287 0 148.802c0 52.96 11.836 92.545 35.517 118.744 23.68 26.206 54.436 39.302 92.267 39.302 33.343 0 60.528-10.856 81.546-32.576 21.017-21.714 32.774-49.167 31.525-114.832" fill-rule="evenodd"/></svg>
